# xmcd
#
# Track frame offsets:
#	150
#	15512
#	29927
#	45606
#	61536
#	78114
#	95664
#	110321
#	125788
#	142371
#	160967
#	178029
#
# Disc length: 2602 seconds
#
# Revision: 0
# Processed by: cddbd v1.5.2PL0 Copyright (c) Steve Scherf et al.
# Submitted via: audiograbber 1.83.01
#
DISCID=a30a280c
DTITLE=Fantasy - Mein schönstes Geschenk
DYEAR=2005
DGENRE=Discofox
TTITLE0=Geh mit ihm
TTITLE1=Du bist mein schönstes Geschenk
TTITLE2=Jenseits von dir
TTITLE3=Ich bin nur froh
TTITLE4=Boom Boom Boom
TTITLE5=Du kannst ihn behalten
TTITLE6=Mit dir
TTITLE7=Du und ich für immer
TTITLE8=Wie lange tut sowas weh
TTITLE9=Die Frau meiner Wahl
TTITLE10=Du fehlst überall
TTITLE11=Weil es Liebe ist
EXTD=
EXTT0=
EXTT1=
EXTT2=
EXTT3=
EXTT4=
EXTT5=
EXTT6=
EXTT7=
EXTT8=
EXTT9=
EXTT10=
EXTT11=
PLAYORDER=
